<mxfile host="Electron" agent="Mozilla/5.0 (X11; Linux x86_64) AppleWebKit/537.36 (KHTML, like Gecko) draw.io/24.7.8 Chrome/128.0.6613.36 Electron/32.0.1 Safari/537.36" version="24.7.8">
  <diagram name="Страница — 1" id="fOMC7xHu2SzvGz_D-_M9">
    <mxGraphModel dx="998" dy="593" grid="1" gridSize="10" guides="1" tooltips="1" connect="1" arrows="1" fold="1" page="1" pageScale="1" pageWidth="827" pageHeight="1169" math="0" shadow="0">
      <root>
        <mxCell id="0" />
        <mxCell id="1" parent="0" />
        <mxCell id="zBT_9HMHtEfZ82FMeH_Q-7" style="edgeStyle=orthogonalEdgeStyle;rounded=0;orthogonalLoop=1;jettySize=auto;html=1;" edge="1" parent="1" source="zBT_9HMHtEfZ82FMeH_Q-1" target="zBT_9HMHtEfZ82FMeH_Q-3">
          <mxGeometry relative="1" as="geometry" />
        </mxCell>
        <mxCell id="zBT_9HMHtEfZ82FMeH_Q-8" style="edgeStyle=orthogonalEdgeStyle;rounded=0;orthogonalLoop=1;jettySize=auto;html=1;" edge="1" parent="1" source="zBT_9HMHtEfZ82FMeH_Q-1" target="zBT_9HMHtEfZ82FMeH_Q-5">
          <mxGeometry relative="1" as="geometry" />
        </mxCell>
        <mxCell id="zBT_9HMHtEfZ82FMeH_Q-1" value="Configuration" style="rounded=0;whiteSpace=wrap;html=1;" vertex="1" parent="1">
          <mxGeometry x="190" y="40" width="120" height="60" as="geometry" />
        </mxCell>
        <mxCell id="zBT_9HMHtEfZ82FMeH_Q-2" value="- Name&lt;div&gt;- Languages&lt;/div&gt;&lt;div&gt;- Catalogs&lt;/div&gt;" style="text;html=1;align=left;verticalAlign=top;whiteSpace=wrap;rounded=0;" vertex="1" parent="1">
          <mxGeometry x="190" y="100" width="120" height="60" as="geometry" />
        </mxCell>
        <mxCell id="zBT_9HMHtEfZ82FMeH_Q-3" value="Language" style="rounded=0;whiteSpace=wrap;html=1;" vertex="1" parent="1">
          <mxGeometry x="50" y="170" width="120" height="60" as="geometry" />
        </mxCell>
        <mxCell id="zBT_9HMHtEfZ82FMeH_Q-4" value="- Name&lt;div&gt;- Synonym&lt;/div&gt;&lt;div&gt;- Comment&lt;/div&gt;&lt;div&gt;- Code&lt;/div&gt;" style="text;html=1;align=left;verticalAlign=top;whiteSpace=wrap;rounded=0;" vertex="1" parent="1">
          <mxGeometry x="50" y="230" width="120" height="70" as="geometry" />
        </mxCell>
        <mxCell id="zBT_9HMHtEfZ82FMeH_Q-16" style="edgeStyle=orthogonalEdgeStyle;rounded=0;orthogonalLoop=1;jettySize=auto;html=1;" edge="1" parent="1" source="zBT_9HMHtEfZ82FMeH_Q-5" target="zBT_9HMHtEfZ82FMeH_Q-9">
          <mxGeometry relative="1" as="geometry" />
        </mxCell>
        <mxCell id="zBT_9HMHtEfZ82FMeH_Q-17" style="edgeStyle=orthogonalEdgeStyle;rounded=0;orthogonalLoop=1;jettySize=auto;html=1;" edge="1" parent="1" source="zBT_9HMHtEfZ82FMeH_Q-5" target="zBT_9HMHtEfZ82FMeH_Q-11">
          <mxGeometry relative="1" as="geometry" />
        </mxCell>
        <mxCell id="zBT_9HMHtEfZ82FMeH_Q-5" value="Catalog" style="rounded=0;whiteSpace=wrap;html=1;" vertex="1" parent="1">
          <mxGeometry x="360" y="180" width="120" height="60" as="geometry" />
        </mxCell>
        <mxCell id="zBT_9HMHtEfZ82FMeH_Q-6" value="- Name&lt;div&gt;- Synonym&lt;/div&gt;&lt;div&gt;- Comment&lt;/div&gt;&lt;div&gt;- Properties (vector)&lt;/div&gt;&lt;div&gt;- TabularSections (vector)&lt;/div&gt;" style="text;html=1;align=left;verticalAlign=top;whiteSpace=wrap;rounded=0;" vertex="1" parent="1">
          <mxGeometry x="360" y="240" width="120" height="90" as="geometry" />
        </mxCell>
        <mxCell id="zBT_9HMHtEfZ82FMeH_Q-9" value="Property" style="rounded=0;whiteSpace=wrap;html=1;" vertex="1" parent="1">
          <mxGeometry x="490" y="350" width="120" height="60" as="geometry" />
        </mxCell>
        <mxCell id="zBT_9HMHtEfZ82FMeH_Q-10" value="- Name&lt;div&gt;- Synonym&lt;/div&gt;&lt;div&gt;- Comment&lt;/div&gt;&lt;div&gt;- Type&lt;br&gt;&lt;/div&gt;" style="text;html=1;align=left;verticalAlign=top;whiteSpace=wrap;rounded=0;" vertex="1" parent="1">
          <mxGeometry x="490" y="410" width="120" height="70" as="geometry" />
        </mxCell>
        <mxCell id="zBT_9HMHtEfZ82FMeH_Q-15" style="edgeStyle=orthogonalEdgeStyle;rounded=0;orthogonalLoop=1;jettySize=auto;html=1;" edge="1" parent="1" source="zBT_9HMHtEfZ82FMeH_Q-11" target="zBT_9HMHtEfZ82FMeH_Q-13">
          <mxGeometry relative="1" as="geometry" />
        </mxCell>
        <mxCell id="zBT_9HMHtEfZ82FMeH_Q-11" value="TabularSection" style="rounded=0;whiteSpace=wrap;html=1;" vertex="1" parent="1">
          <mxGeometry x="650" y="350" width="120" height="60" as="geometry" />
        </mxCell>
        <mxCell id="zBT_9HMHtEfZ82FMeH_Q-12" value="- Name&lt;div&gt;- Synonym&lt;/div&gt;&lt;div&gt;- Comment&lt;/div&gt;&lt;div&gt;- Columns (vector)&lt;br&gt;&lt;/div&gt;" style="text;html=1;align=left;verticalAlign=top;whiteSpace=wrap;rounded=0;" vertex="1" parent="1">
          <mxGeometry x="650" y="410" width="120" height="70" as="geometry" />
        </mxCell>
        <mxCell id="zBT_9HMHtEfZ82FMeH_Q-13" value="TabularColumn" style="rounded=0;whiteSpace=wrap;html=1;" vertex="1" parent="1">
          <mxGeometry x="780" y="490" width="120" height="60" as="geometry" />
        </mxCell>
        <mxCell id="zBT_9HMHtEfZ82FMeH_Q-14" value="- Name&lt;div&gt;- Synonym&lt;/div&gt;&lt;div&gt;- Comment&lt;/div&gt;&lt;div&gt;- Type&lt;br&gt;&lt;/div&gt;" style="text;html=1;align=left;verticalAlign=top;whiteSpace=wrap;rounded=0;" vertex="1" parent="1">
          <mxGeometry x="780" y="550" width="120" height="70" as="geometry" />
        </mxCell>
        <mxCell id="zBT_9HMHtEfZ82FMeH_Q-19" value="Type" style="rounded=0;whiteSpace=wrap;html=1;" vertex="1" parent="1">
          <mxGeometry x="180" y="370" width="120" height="60" as="geometry" />
        </mxCell>
      </root>
    </mxGraphModel>
  </diagram>
</mxfile>
